<?xml version="1.0" encoding="utf-8"?>
<!-- Generator: Adobe Illustrator 15.0.2, SVG Export Plug-In . SVG Version: 6.00 Build 0)  -->
<!DOCTYPE svg PUBLIC "-//W3C//DTD SVG 1.1//EN" "http://www.w3.org/Graphics/SVG/1.1/DTD/svg11.dtd">
<svg version="1.1" id="Layer_1" xmlns="http://www.w3.org/2000/svg" xmlns:xlink="http://www.w3.org/1999/xlink" x="0px" y="0px"
	 width="24px" height="24px" viewBox="-595.5 420.5 24 24" enable-background="new -595.5 420.5 24 24" xml:space="preserve">
<path fill="#999999" d="M-573.5,426.5h-5v-2.053c0-0.839-1.188-1.947-2-1.947h-6c-0.811,0-2,1.161-2,2v2h-5c-0.811,0-2,1.53-2,2v12
	c0,1.209,1.189,2,2,2h20c0.812,0,2-0.791,2-2v-12C-571.5,428.03-572.688,426.5-573.5,426.5z M-580.5,424.5v2h-6v-2H-580.5z
	 M-573.5,431.5h-3v2c0,0.42-0.594,1-1,1h-1c-0.406,0-1-0.58-1-1v-2h-8v2c0,0.42-0.594,1-1,1h-0.837c-0.406,0-1.163-0.58-1.163-1v-2
	h-3v-1h20V431.5z"/>
</svg>
