<?xml version="1.0" encoding="utf-8"?>
<!-- Generator: Adobe Illustrator 19.1.0, SVG Export Plug-In . SVG Version: 6.00 Build 0)  -->
<svg version="1.1" id="Layer_1" xmlns="http://www.w3.org/2000/svg" xmlns:xlink="http://www.w3.org/1999/xlink" x="0px" y="0px"
	 viewBox="-276 59 120 26" width="120" height="26" style="enable-background:new -276 59 120 26;" xml:space="preserve">
<style type="text/css">
	.st0{fill:#FFFFFF;}
	.st1{fill:#00ADEF;}
</style>
<g>
	<path class="st0" d="M-246.4,77.3V66.5h2.2v4.1h2.5v-4.1h2.2v10.8h-2.2v-4.8h-2.5v4.8L-246.4,77.3L-246.4,77.3z"/>
	<path class="st0" d="M-236.2,71.7h-1.9v-0.2c0-1.7,1-2.5,2.9-2.5c1.1,0,2,0.2,2.4,0.7c0.4,0.4,0.5,1,0.5,1.8v4.3
		c0,0.7,0.1,1.2,0.3,1.6h-2c-0.1-0.2-0.2-0.4-0.3-0.8c-0.2,0.4-0.5,0.7-0.9,0.8c-0.3,0.1-0.7,0.2-1.2,0.2c-0.7,0-1.2-0.3-1.5-0.8
		c-0.3-0.4-0.4-0.9-0.4-1.6c0-0.7,0.2-1.3,0.5-1.7c0.3-0.4,0.8-0.7,1.6-0.9l1.2-0.3c0.6-0.2,0.8-0.5,0.8-1c0-0.7-0.3-1-1-1
		c-0.6,0-1,0.4-1,1.1L-236.2,71.7L-236.2,71.7z M-234.2,74.9v-1.6c-0.3,0.2-0.6,0.3-0.9,0.4c-0.8,0.2-1.2,0.6-1.2,1.3
		c0,0.8,0.3,1.1,0.8,1.1c0.3,0,0.6-0.1,0.8-0.3C-234.4,75.6-234.2,75.3-234.2,74.9z"/>
	<path class="st0" d="M-230.8,77.3v-8.1h2v1.1h0c0.5-0.9,1.1-1.3,1.9-1.3c0.1,0,0.2,0,0.4,0v2c-0.3,0-0.5,0-0.6,0
		c-0.4,0-0.8,0.1-1,0.3c-0.3,0.3-0.5,0.6-0.5,1.1v4.9L-230.8,77.3L-230.8,77.3z"/>
	<path class="st0" d="M-219.8,72.1h-2c0-1.1-0.3-1.6-0.9-1.6c-0.5,0-0.8,0.2-1,0.7c-0.1,0.4-0.2,1.1-0.2,2.1c0,1.1,0.1,1.8,0.2,2.2
		c0.2,0.4,0.5,0.7,0.9,0.7c0.7,0,1-0.6,1-1.9h2c0,2.2-1,3.3-3.1,3.3c-1.1,0-1.9-0.3-2.3-0.9c-0.5-0.7-0.8-1.8-0.8-3.4
		c0-1.6,0.3-2.7,0.9-3.4c0.5-0.6,1.3-0.9,2.4-0.9c0.9,0,1.7,0.3,2.2,0.8C-220.1,70.4-219.8,71.2-219.8,72.1z"/>
	<path class="st0" d="M-219,73.3c0-1.4,0.2-2.5,0.7-3.2c0.5-0.7,1.3-1.1,2.5-1.1c1.2,0,2.1,0.3,2.5,1.1c0.4,0.6,0.7,1.7,0.7,3.2
		c0,1.4-0.2,2.5-0.7,3.2c-0.5,0.7-1.3,1.1-2.5,1.1c-1.2,0-2.1-0.3-2.5-1.1C-218.8,75.8-219,74.8-219,73.3z M-216.9,73.3
		c0,1,0.1,1.7,0.2,2.1c0.2,0.5,0.5,0.8,0.9,0.8c0.4,0,0.7-0.2,0.9-0.7c0.2-0.4,0.2-1.2,0.2-2.2s-0.1-1.8-0.2-2.2
		c-0.2-0.4-0.5-0.7-0.9-0.7c-0.5,0-0.8,0.3-0.9,0.8C-216.8,71.6-216.9,72.3-216.9,73.3z"/>
	<path class="st0" d="M-207.3,77.3v-1h0c-0.4,0.8-1.1,1.2-2.1,1.2c-1.4,0-2.1-0.8-2.1-2.3v-6h2.1v5.6c0,0.8,0.3,1.1,0.9,1.1
		c0.7,0,1.1-0.4,1.1-1.3v-5.4h2.1v8.1C-205.3,77.3-207.3,77.3-207.3,77.3z"/>
	<path class="st0" d="M-203.9,77.3v-8.1h2v1.1h0c0.5-0.9,1.1-1.3,1.9-1.3c0.1,0,0.2,0,0.4,0v2c-0.3,0-0.5,0-0.7,0
		c-0.4,0-0.8,0.1-1,0.3c-0.3,0.3-0.5,0.6-0.5,1.1v4.9L-203.9,77.3L-203.9,77.3z"/>
	<path class="st0" d="M-198.4,69.2v-2.3h2.1v2.3h1.2v1.4h-1.2V75c0,0.3,0,0.5,0.1,0.7c0.1,0.2,0.3,0.2,0.6,0.2c0.1,0,0.3,0,0.5,0
		v1.4c-0.6,0.1-1.1,0.1-1.4,0.1c-0.8,0-1.3-0.1-1.6-0.4s-0.4-0.9-0.4-1.7v-4.7h-1.1v-1.4C-199.5,69.2-198.4,69.2-198.4,69.2z"/>
	<path class="st0" d="M-194.7,74.7h1.9v0.3c0,0.8,0.4,1.2,1.1,1.2c0.7,0,1.1-0.3,1.1-1c0-0.4-0.3-0.7-0.8-0.9l-1.5-0.5
		c-1.2-0.4-1.7-1.2-1.7-2.3c0-0.7,0.2-1.3,0.7-1.7c0.5-0.5,1.3-0.7,2.3-0.7c1.9,0,2.8,0.8,2.8,2.3v0.3h-1.9c0-0.8-0.3-1.2-0.9-1.2
		c-0.3,0-0.5,0.1-0.7,0.2s-0.3,0.4-0.3,0.6c0,0.4,0.3,0.8,0.9,1l1.3,0.4c0.7,0.2,1.1,0.5,1.4,0.9s0.4,0.8,0.4,1.5
		c0,0.8-0.3,1.5-0.8,1.9c-0.6,0.4-1.3,0.7-2.2,0.7c-1.1,0-1.9-0.2-2.4-0.7c-0.4-0.4-0.6-1-0.6-1.9V74.7L-194.7,74.7z"/>
</g>
<g>
	<path class="st1" d="M-182.5,66.3c3.4,0,5.1,2.7,5.1,5.6c0,2.9-1.7,5.6-5.1,5.6c-3.4,0-5.1-2.7-5.1-5.6S-185.9,66.3-182.5,66.3z
		 M-182.5,76.7c2.8,0,4.1-2.4,4.1-4.7c0-2.4-1.2-4.7-4.1-4.7c-2.9,0-4.1,2.4-4.1,4.7C-186.5,74.3-185.3,76.7-182.5,76.7z"/>
	<path class="st1" d="M-176,69.5h1v1.3h0c0.3-0.9,1.4-1.6,2.5-1.6c2.2,0,2.9,1.1,2.9,3v5h-1v-4.9c0-1.3-0.4-2.4-2-2.4
		c-1.5,0-2.4,1.1-2.4,2.7v4.6h-1L-176,69.5L-176,69.5z"/>
	<path class="st1" d="M-167.3,73.7c0,1.4,0.7,3.1,2.6,3.1c1.4,0,2.1-0.8,2.5-2h1c-0.4,1.8-1.4,2.8-3.4,2.8c-2.5,0-3.5-1.9-3.5-4.1
		c0-2.1,1-4.1,3.5-4.1c2.5,0,3.5,2.2,3.4,4.4C-161.3,73.7-167.3,73.7-167.3,73.7z M-162.2,72.9c0-1.4-0.9-2.8-2.5-2.8
		c-1.6,0-2.4,1.4-2.6,2.8C-167.3,72.9-162.2,72.9-162.2,72.9z"/>
</g>
<path class="st1" d="M-252.4,67l2-1.2c-2-3.2-5.5-5.4-9.6-5.5v2.3C-256.7,62.8-253.9,64.5-252.4,67L-252.4,67z"/>
<path class="st1" d="M-250,66.4l-2,1.2c0.7,1.3,1.1,2.8,1.1,4.4c0,1.6-0.4,3.1-1.1,4.4l2,1.2c0.9-1.6,1.4-3.5,1.4-5.5
	C-248.6,69.9-249.1,68.1-250,66.4L-250,66.4z"/>
<path class="st1" d="M-259.9,81.2v2.3c4-0.1,7.6-2.3,9.6-5.5l-2-1.2C-253.9,79.4-256.7,81.1-259.9,81.2L-259.9,81.2z"/>
<path class="st1" d="M-268.1,76.8l-2,1.2c2,3.2,5.5,5.4,9.6,5.5v-2.3C-263.7,81.1-266.5,79.4-268.1,76.8L-268.1,76.8z"/>
<path class="st1" d="M-269.5,71.9c0-1.6,0.4-3.1,1.1-4.4l-2-1.2c-0.9,1.6-1.4,3.5-1.4,5.5s0.5,3.9,1.4,5.5l2-1.2
	C-269.1,75-269.5,73.5-269.5,71.9L-269.5,71.9z"/>
<path class="st1" d="M-270.1,65.9l2,1.2c1.6-2.5,4.4-4.3,7.6-4.4v-2.3C-264.6,60.5-268.1,62.6-270.1,65.9L-270.1,65.9z"/>
<polygon class="st0" points="-261.4,77.9 -263.8,77.9 -263.8,66 -261.4,66 "/>
<polygon class="st0" points="-256.6,70.7 -256.6,77.9 -259,77.9 -259,73.1 -260.8,73.1 -260.8,71.9 -260.8,70.7 "/>
<polygon class="st0" points="-256.6,70.1 -259,70.1 -259,66 -256.6,66 "/>
</svg>
