<?xml version="1.0" encoding="UTF-8" standalone="no"?>
<!-- Generator: Adobe Illustrator 19.1.0, SVG Export Plug-In . SVG Version: 6.00 Build 0)  -->

<svg
   xmlns:dc="http://purl.org/dc/elements/1.1/"
   xmlns:cc="http://creativecommons.org/ns#"
   xmlns:rdf="http://www.w3.org/1999/02/22-rdf-syntax-ns#"
   xmlns:svg="http://www.w3.org/2000/svg"
   xmlns="http://www.w3.org/2000/svg"
   xmlns:sodipodi="http://sodipodi.sourceforge.net/DTD/sodipodi-0.dtd"
   xmlns:inkscape="http://www.inkscape.org/namespaces/inkscape"
   version="1.1"
   id="Layer_1"
   x="0px"
   y="0px"
   viewBox="-276 59 24 24"
   width="24"
   height="24"
   xml:space="preserve"
   inkscape:version="0.91 r13725"
   sodipodi:docname="h1-logo-white.svg"><metadata
     id="metadata3667"><rdf:RDF><cc:Work
         rdf:about=""><dc:format>image/svg+xml</dc:format><dc:type
           rdf:resource="http://purl.org/dc/dcmitype/StillImage" /><dc:title></dc:title></cc:Work></rdf:RDF></metadata><defs
     id="defs3665" /><sodipodi:namedview
     pagecolor="#ffffff"
     bordercolor="#666666"
     borderopacity="1"
     objecttolerance="10"
     gridtolerance="10"
     guidetolerance="10"
     inkscape:pageopacity="0"
     inkscape:pageshadow="2"
     inkscape:window-width="1285"
     inkscape:window-height="763"
     id="namedview3663"
     showgrid="false"
     inkscape:snap-grids="true"
     inkscape:zoom="17.901587"
     inkscape:cx="12.438972"
     inkscape:cy="11.385834"
     inkscape:window-x="1813"
     inkscape:window-y="103"
     inkscape:window-maximized="0"
     inkscape:current-layer="Layer_1"
     showborder="true"
     inkscape:showpageshadow="false"><inkscape:grid
       type="xygrid"
       id="grid3669" /></sodipodi:namedview><style
     type="text/css"
     id="style3615">
	.st0{fill:#FFFFFF;}
	.st1{fill:#00ADEF;}
</style><path
     class="st1"
     d="m -256.14269,66.005497 2,-1.2 c -2,-3.2 -5.5,-5.4 -9.6,-5.5 l 0,2.3 c 3.3,0.2 6.1,1.9 7.6,4.4 l 0,0 z"
     id="path3645"
     inkscape:connector-curvature="0"
     style="fill:#00adef" /><path
     class="st1"
     d="m -253.74269,65.405497 -2,1.2 c 0.7,1.3 1.1,2.8 1.1,4.4 0,1.6 -0.4,3.1 -1.1,4.4 l 2,1.2 c 0.9,-1.6 1.4,-3.5 1.4,-5.5 0,-2.2 -0.5,-4 -1.4,-5.7 l 0,0 z"
     id="path3647"
     inkscape:connector-curvature="0"
     style="fill:#00adef" /><path
     class="st1"
     d="m -263.64269,80.205497 0,2.3 c 4,-0.1 7.6,-2.3 9.6,-5.5 l -2,-1.2 c -1.6,2.6 -4.4,4.3 -7.6,4.4 l 0,0 z"
     id="path3649"
     inkscape:connector-curvature="0"
     style="fill:#00adef" /><path
     class="st1"
     d="m -271.84269,75.805497 -2,1.2 c 2,3.2 5.5,5.4 9.6,5.5 l 0,-2.3 c -3.2,-0.1 -6,-1.8 -7.6,-4.4 l 0,0 z"
     id="path3651"
     inkscape:connector-curvature="0"
     style="fill:#00adef" /><path
     class="st1"
     d="m -273.24269,70.905497 c 0,-1.6 0.4,-3.1 1.1,-4.4 l -2,-1.2 c -0.9,1.6 -1.4,3.5 -1.4,5.5 0,2 0.5,3.9 1.4,5.5 l 2,-1.2 c -0.7,-1.1 -1.1,-2.6 -1.1,-4.2 l 0,0 z"
     id="path3653"
     inkscape:connector-curvature="0"
     style="fill:#00adef" /><path
     class="st1"
     d="m -273.84269,64.905497 2,1.2 c 1.6,-2.5 4.4,-4.3 7.6,-4.4 l 0,-2.3 c -4.1,0.1 -7.6,2.2 -9.6,5.5 l 0,0 z"
     id="path3655"
     inkscape:connector-curvature="0"
     style="fill:#00adef" /><polygon
     class="st0"
     points="-261.4,66 -261.4,77.9 -263.8,77.9 -263.8,66 "
     id="polygon3657"
     style="fill:#ffffff"
     transform="translate(-3.742685,-0.99450254)" /><polygon
     class="st0"
     points="-260.8,73.1 -260.8,71.9 -260.8,70.7 -256.6,70.7 -256.6,77.9 -259,77.9 -259,73.1 "
     id="polygon3659"
     style="fill:#ffffff"
     transform="translate(-3.742685,-0.99450254)" /><polygon
     class="st0"
     points="-256.6,66 -256.6,70.1 -259,70.1 -259,66 "
     id="polygon3661"
     style="fill:#ffffff"
     transform="translate(-3.742685,-0.99450254)" /></svg>