<?xml version="1.0" encoding="utf-8"?>
<!-- Generator: Adobe Illustrator 15.0.2, SVG Export Plug-In . SVG Version: 6.00 Build 0)  -->
<!DOCTYPE svg PUBLIC "-//W3C//DTD SVG 1.1//EN" "http://www.w3.org/Graphics/SVG/1.1/DTD/svg11.dtd">
<svg version="1.1" id="Layer_1" xmlns="http://www.w3.org/2000/svg" xmlns:xlink="http://www.w3.org/1999/xlink" x="0px" y="0px"
	 width="32px" height="32px" viewBox="0 0 32 32" style="enable-background:new 0 0 32 32;" xml:space="preserve">
<g>
	<path style="fill:#333333;" d="M15.8,0.2C7.1,0.4,0.1,7.5,0.2,16.2c0.2,8.8,7.4,15.7,16,15.6c8.8-0.2,15.7-7.4,15.6-16
		C31.6,7.1,24.5,0.1,15.8,0.2z M17.5,5.5c1.6,0,2.1,0.9,2.1,2c0,1.3-1.1,2.6-2.9,2.6c-1.5,0-2.3-0.8-2.2-2
		C14.5,6.9,15.4,5.5,17.5,5.5z M13.4,25.8c-1.1,0-1.9-0.7-1.1-3.6l1.3-5.2c0.2-0.8,0.3-1.2,0-1.2c-0.3,0-1.8,0.6-2.6,1.1l-0.6-0.9
		c2.7-2.2,5.8-3.6,7.1-3.6c1.1,0,1.3,1.3,0.7,3.3l-1.4,5.5c-0.3,1-0.1,1.3,0.1,1.3c0.3,0,1.4-0.4,2.5-1.2l0.6,0.8
		C17.4,24.9,14.5,25.8,13.4,25.8z"/>
</g>
</svg>
