<?xml version="1.0" encoding="utf-8"?>
<!-- Generator: Adobe Illustrator 15.0.2, SVG Export Plug-In . SVG Version: 6.00 Build 0)  -->
<!DOCTYPE svg PUBLIC "-//W3C//DTD SVG 1.1//EN" "http://www.w3.org/Graphics/SVG/1.1/DTD/svg11.dtd">
<svg version="1.1" id="Layer_1" xmlns="http://www.w3.org/2000/svg" xmlns:xlink="http://www.w3.org/1999/xlink" x="0px" y="0px"
	 width="24px" height="24px" viewBox="-595.5 420.5 24 24" enable-background="new -595.5 420.5 24 24" xml:space="preserve">
<path fill="#999999" d="M-590.809,426.302c-1.347,1.149-2.088,2.629-2.088,4.165c0,0.861,0.228,1.696,0.676,2.483
	c0.463,0.811,1.159,1.552,2.013,2.144c0.618,0.427,1.033,1.109,1.143,1.879c0.037,0.256,0.06,0.515,0.069,0.771
	c0.152-0.131,0.3-0.273,0.444-0.426c0.491-0.518,1.155-0.803,1.841-0.803c0.109,0,0.219,0.008,0.329,0.022
	c0.426,0.058,0.861,0.086,1.293,0.086v2.737c-0.552,0-1.093-0.038-1.622-0.109c-2.236,2.353-4.907,2.773-7.488,2.836v-0.576
	c1.394-0.718,2.603-2.025,2.603-3.519c0-0.21-0.015-0.415-0.043-0.614c-2.355-1.631-3.861-4.122-3.861-6.912
	c0-4.912,4.663-8.895,10.413-8.895c5.663,0,10.271,3.862,10.41,8.67c-0.836-0.392-1.746-0.63-2.69-0.697
	c-0.234-1.197-0.923-2.325-1.998-3.243c-0.718-0.614-1.564-1.1-2.514-1.442c-1.011-0.365-2.09-0.55-3.208-0.55
	c-1.117,0-2.196,0.185-3.207,0.55C-589.244,425.202-590.09,425.688-590.809,426.302z"/>
<path fill="#999999" d="M-573.69,439.93c0,0.846,0.484,1.58,1.19,1.938v0.297c-0.198,0.026-0.399,0.041-0.604,0.041
	c-1.266,0-2.406-0.531-3.213-1.382c-0.488,0.13-1.005,0.2-1.54,0.2c-2.959,0-5.357-2.132-5.357-4.762s2.398-4.762,5.357-4.762
	c2.958,0,5.357,2.132,5.357,4.762c0,1.029-0.368,1.983-0.993,2.762C-573.62,439.299-573.69,439.606-573.69,439.93z"/>
</svg>
