<?xml version="1.0" encoding="utf-8"?>
<!-- Generator: Adobe Illustrator 15.0.2, SVG Export Plug-In . SVG Version: 6.00 Build 0)  -->
<!DOCTYPE svg PUBLIC "-//W3C//DTD SVG 1.1//EN" "http://www.w3.org/Graphics/SVG/1.1/DTD/svg11.dtd">
<svg version="1.1" id="Layer_1" xmlns="http://www.w3.org/2000/svg" xmlns:xlink="http://www.w3.org/1999/xlink" x="0px" y="0px"
	 width="24px" height="24px" viewBox="-595.5 420.5 24 24" enable-background="new -595.5 420.5 24 24" xml:space="preserve">
<path fill="#999999" d="M-574.117,420.551h-6.651c-1.219,0-2.922,0.705-3.785,1.567l-10.301,10.651
	c-0.862,0.861-0.862,2.273,0,3.135l7.949,7.949c0.862,0.861,2.272,0.861,3.135,0l10.702-10.302c0.862-0.862,1.567-2.564,1.567-3.785
	v-6.999C-571.5,421.549-572.897,420.551-574.117,420.551z M-577,428.5c-1.381,0-2.5-1.119-2.5-2.5s1.119-2.5,2.5-2.5
	s2.5,1.119,2.5,2.5S-575.619,428.5-577,428.5z"/>
</svg>
