<?xml version="1.0" encoding="utf-8"?>
<!-- Generator: Adobe Illustrator 15.0.2, SVG Export Plug-In . SVG Version: 6.00 Build 0)  -->
<!DOCTYPE svg PUBLIC "-//W3C//DTD SVG 1.1//EN" "http://www.w3.org/Graphics/SVG/1.1/DTD/svg11.dtd">
<svg version="1.1" id="Layer_1" xmlns="http://www.w3.org/2000/svg" xmlns:xlink="http://www.w3.org/1999/xlink" x="0px" y="0px"
	 width="24px" height="24px" viewBox="-595.5 420.5 24 24" enable-background="new -595.5 420.5 24 24" xml:space="preserve">
<rect x="-590.5" y="430.5" fill="#999999" width="2" height="4"/>
<polygon fill="#999999" points="-577.5,424.5 -584.5,424.5 -584.5,426.5 -577.5,426.5 -577.5,429.5 -575.5,429.5 -575.5,426.5 
	-575.5,424.5 "/>
<path fill="#999999" d="M-572.5,429.5h-9c-0.6,0-1,0.4-1,1v1v7v1h1h9h1v-1v-7v-1C-571.5,429.9-571.9,429.5-572.5,429.5z
	 M-573.5,437.5h-7v-4h7V437.5z M-573.5,432.5h-7v-1h7V432.5z"/>
<path fill="#999999" d="M-585.5,420.5h-9c-0.6,0-1,0.4-1,1v1v7v1h1h9h1v-1v-7v-1C-584.5,420.9-584.9,420.5-585.5,420.5z
	 M-586.5,428.5h-7v-4h7V428.5z M-586.5,423.5h-7v-1h7V423.5z"/>
<path fill="#999999" d="M-585.5,434.5h-9c-0.6,0-1,0.4-1,1v1v7v1h1h9h1v-1v-7v-1C-584.5,434.9-584.9,434.5-585.5,434.5z
	 M-586.5,442.5h-7v-4h7V442.5z M-586.5,437.5h-7v-1h7V437.5z"/>
</svg>
