<?xml version="1.0" encoding="utf-8"?>
<!-- Generator: Adobe Illustrator 15.0.2, SVG Export Plug-In . SVG Version: 6.00 Build 0)  -->
<!DOCTYPE svg PUBLIC "-//W3C//DTD SVG 1.1//EN" "http://www.w3.org/Graphics/SVG/1.1/DTD/svg11.dtd">
<svg version="1.1" id="Layer_1" xmlns="http://www.w3.org/2000/svg" xmlns:xlink="http://www.w3.org/1999/xlink" x="0px" y="0px"
	 width="24px" height="24px" viewBox="-595.5 420.5 24 24" enable-background="new -595.5 420.5 24 24" xml:space="preserve">
<path id="path67" fill="#999999" d="M-585.592,440.5l-4.908-5l1.399-2l3.509,3l6.571-9l1.399,2L-585.592,440.5z M-576.5,423.5
	c0.002,0.002,0,19,0,19h-16c-0.002-0.002,0-19,0-19c-1,1-0.002,0.002,0,0l-2,0.061v17.879c0,1.684,1.316,3.061,3,3.061h14
	c1.684,0,3-1.377,3-3.061v-17.879L-576.5,423.5z M-580.5,423.561V422.5c0-0.845-1.155-2-2-2h-4c-0.845,0-2,1.155-2,2v1.061h-2v2.939
	h12v-2.939H-580.5z M-582.5,423.561h-4V422.5h4V423.561z"/>
</svg>
