<?xml version="1.0" encoding="utf-8"?>
<!-- Generator: Adobe Illustrator 15.0.2, SVG Export Plug-In . SVG Version: 6.00 Build 0)  -->
<!DOCTYPE svg PUBLIC "-//W3C//DTD SVG 1.1//EN" "http://www.w3.org/Graphics/SVG/1.1/DTD/svg11.dtd">
<svg version="1.1" id="Layer_1" xmlns="http://www.w3.org/2000/svg" xmlns:xlink="http://www.w3.org/1999/xlink" x="0px" y="0px"
	 width="24px" height="24px" viewBox="-595.5 420.5 24 24" enable-background="new -595.5 420.5 24 24" xml:space="preserve">
<path fill="#999999" d="M-592.5,444.5h18c0.669,0,2-1.331,2-2v-20c0-0.67-1.331-2-2-2h-18V444.5z M-591.5,421.5h3.06v21.969h-3.06
	V421.5z"/>
<path fill="#999999" d="M-589.5,425c0,0.828-0.671,1.5-1.5,1.5h-2c-0.829,0-1.5-0.672-1.5-1.5l0,0c0-0.828,0.671-1.5,1.5-1.5h2
	C-590.171,423.5-589.5,424.172-589.5,425L-589.5,425z"/>
<path fill="#999999" d="M-589.5,430c0,0.828-0.671,1.5-1.5,1.5h-2c-0.829,0-1.5-0.672-1.5-1.5l0,0c0-0.828,0.671-1.5,1.5-1.5h2
	C-590.171,428.5-589.5,429.172-589.5,430L-589.5,430z"/>
<path fill="#999999" d="M-589.5,435c0,0.828-0.671,1.5-1.5,1.5h-2c-0.829,0-1.5-0.672-1.5-1.5l0,0c0-0.828,0.671-1.5,1.5-1.5h2
	C-590.171,433.5-589.5,434.172-589.5,435L-589.5,435z"/>
<path fill="#999999" d="M-589.5,440.063c0,0.828-0.671,1.5-1.5,1.5h-2c-0.829,0-1.5-0.672-1.5-1.5l0,0c0-0.828,0.671-1.5,1.5-1.5h2
	C-590.171,438.563-589.5,439.234-589.5,440.063L-589.5,440.063z"/>
<g>
	<path fill="#FFFFFF" d="M-583.603,438.5h-2.689l4.35-12.202h2.947l4.3,12.202h-2.772l-0.78-2.516h-4.507L-583.603,438.5z
		 M-582.076,433.877h3.113l-1.519-4.832h-0.033L-582.076,433.877z"/>
</g>
</svg>
