<?xml version="1.0" encoding="utf-8"?>
<!-- Generator: Adobe Illustrator 15.0.2, SVG Export Plug-In . SVG Version: 6.00 Build 0)  -->
<!DOCTYPE svg PUBLIC "-//W3C//DTD SVG 1.1//EN" "http://www.w3.org/Graphics/SVG/1.1/DTD/svg11.dtd">
<svg version="1.1" id="Layer_1" xmlns="http://www.w3.org/2000/svg" xmlns:xlink="http://www.w3.org/1999/xlink" x="0px" y="0px"
	 width="24px" height="24px" viewBox="0 0 24 24" enable-background="new 0 0 24 24" xml:space="preserve">
<path fill="#999999" d="M22,1.9H2c-1.1,0-2,0.7-2,1.8v15c0,1.1,0.887,2.176,1.987,2.176L22,20.9c1.1,0,2-1.102,2-2.2v-15
	C24,2.6,23.1,1.9,22,1.9z M17.798,12.35L7.75,17.027c-1.197,0.557-2.176-0.066-2.176-1.387v-8.4c0-1.32,0.984-1.956,2.188-1.413
	l10.024,4.523C18.988,10.893,18.995,11.793,17.798,12.35z"/>
</svg>
