<?xml version="1.0" encoding="utf-8"?>
<!-- Generator: Adobe Illustrator 15.0.2, SVG Export Plug-In . SVG Version: 6.00 Build 0)  -->
<!DOCTYPE svg PUBLIC "-//W3C//DTD SVG 1.1//EN" "http://www.w3.org/Graphics/SVG/1.1/DTD/svg11.dtd">
<svg version="1.1" id="Layer_1" xmlns="http://www.w3.org/2000/svg" xmlns:xlink="http://www.w3.org/1999/xlink" x="0px" y="0px"
	 width="24px" height="24px" viewBox="-595.5 420.5 24 24" enable-background="new -595.5 420.5 24 24" xml:space="preserve">
<path fill="#999999" d="M-573.427,422.17l-0.093-0.091c-2.18-2.105-5.747-2.105-7.926,0l-5.05,4.88
	c-2.179,2.105-2.179,5.552,0,7.657l0.093,0.091c0.182,0.175,0.375,0.334,0.573,0.479l1.849-1.785
	c-0.215-0.124-0.42-0.271-0.605-0.449l-0.093-0.09c-1.183-1.145-1.183-3.005,0-4.148l5.05-4.879c1.183-1.144,3.108-1.144,4.292,0
	l0.094,0.09c1.183,1.144,1.183,3.004,0,4.147l-2.285,2.207c0.396,0.947,0.585,1.956,0.568,2.963l3.533-3.415
	C-571.248,427.721-571.248,424.274-573.427,422.17z M-580.89,429.2c-0.182-0.175-0.374-0.334-0.573-0.479l-1.849,1.785
	c0.215,0.124,0.42,0.271,0.605,0.449l0.093,0.091c1.184,1.144,1.184,3.003,0,4.146l-5.05,4.88c-1.183,1.145-3.108,1.145-4.292,0
	l-0.094-0.09c-1.183-1.145-1.183-3.004,0-4.147l2.285-2.208c-0.396-0.946-0.585-1.954-0.568-2.962l-3.533,3.414
	c-2.18,2.106-2.18,5.553,0,7.658l0.093,0.09c2.18,2.105,5.747,2.105,7.926,0l5.05-4.879c2.179-2.104,2.179-5.552,0-7.658
	L-580.89,429.2z"/>
</svg>
