<?xml version="1.0" encoding="utf-8"?>
<!-- Generator: Adobe Illustrator 15.0.2, SVG Export Plug-In . SVG Version: 6.00 Build 0)  -->
<!DOCTYPE svg PUBLIC "-//W3C//DTD SVG 1.1//EN" "http://www.w3.org/Graphics/SVG/1.1/DTD/svg11.dtd">
<svg version="1.1" id="Layer_1" xmlns="http://www.w3.org/2000/svg" xmlns:xlink="http://www.w3.org/1999/xlink" x="0px" y="0px"
	 width="24px" height="24px" viewBox="0 0 24 24" enable-background="new 0 0 24 24" xml:space="preserve">
<path fill="#333333" d="M20.3,6.9h-1.7v6.9l-3.4-3.4l-3.4,3.4V6.9H7.2c-0.9,0-1.7-0.8-1.7-1.7c0-0.9,0.8-1.7,1.7-1.7h13.1
	c0.9,0,1.7-0.8,1.7-1.7S21.2,0,20.3,0H7.2C4.3,0,2,2.3,2,5.1v13.7C2,21.7,4.3,24,7.2,24h13.1c0.9,0,1.7-0.8,1.7-1.7V8.6
	C22,7.6,21.2,6.9,20.3,6.9z"/>
</svg>
