<?xml version="1.0" encoding="UTF-8" standalone="no"?>
<!-- Generator: Adobe Illustrator 15.0.2, SVG Export Plug-In . SVG Version: 6.00 Build 0)  -->

<svg
   xmlns:dc="http://purl.org/dc/elements/1.1/"
   xmlns:cc="http://creativecommons.org/ns#"
   xmlns:rdf="http://www.w3.org/1999/02/22-rdf-syntax-ns#"
   xmlns:svg="http://www.w3.org/2000/svg"
   xmlns="http://www.w3.org/2000/svg"
   xmlns:sodipodi="http://sodipodi.sourceforge.net/DTD/sodipodi-0.dtd"
   xmlns:inkscape="http://www.inkscape.org/namespaces/inkscape"
   version="1.1"
   id="Layer_1"
   x="0px"
   y="0px"
   width="24px"
   height="24px"
   viewBox="0 0 24 24"
   enable-background="new 0 0 24 24"
   xml:space="preserve"
   inkscape:version="0.48.4 r9939"
   sodipodi:docname="title-success.svg"
   inkscape:export-filename="E:\wamp\www\moodle\MOODLE_27_STABLE\moodle\theme\academy_clean\pix\istart\title-success.png"
   inkscape:export-xdpi="91.120003"
   inkscape:export-ydpi="91.120003"><metadata
   id="metadata3012"><rdf:RDF><cc:Work
       rdf:about=""><dc:format>image/svg+xml</dc:format><dc:type
         rdf:resource="http://purl.org/dc/dcmitype/StillImage" /><dc:title></dc:title></cc:Work></rdf:RDF></metadata><defs
   id="defs3010" /><sodipodi:namedview
   pagecolor="#ffffff"
   bordercolor="#666666"
   borderopacity="1"
   objecttolerance="10"
   gridtolerance="10"
   guidetolerance="10"
   inkscape:pageopacity="0"
   inkscape:pageshadow="2"
   inkscape:window-width="1187"
   inkscape:window-height="715"
   id="namedview3008"
   showgrid="false"
   inkscape:zoom="17.963595"
   inkscape:cx="18.318767"
   inkscape:cy="14.941937"
   inkscape:window-x="2356"
   inkscape:window-y="204"
   inkscape:window-maximized="0"
   inkscape:current-layer="Layer_1" />
<path
   style="fill:#333333;fill-opacity:1"
   d="M 11.96875 0.0625 L 9.5 2.78125 L 6 1.6875 L 5.21875 5.28125 L 1.625 6.09375 L 2.75 9.59375 L 0.0625 12.09375 L 2.78125 14.5625 L 1.6875 18.0625 L 5.28125 18.84375 L 6.09375 22.4375 L 9.59375 21.28125 L 12.0625 24 L 14.53125 21.28125 L 18.0625 22.375 L 18.8125 18.78125 L 22.40625 17.96875 L 21.28125 14.46875 L 24 11.96875 L 21.25 9.5 L 22.375 6 L 18.75 5.21875 L 17.96875 1.625 L 14.46875 2.78125 L 11.96875 0.0625 z M 18.125 7.5625 C 18.2375 7.5625 18.35625 7.5875 18.40625 7.6875 L 19.6875 9 C 19.8875 9.1 19.9125 9.39375 19.8125 9.59375 L 11.1875 18.1875 C 10.9875 18.3875 10.69375 18.3875 10.59375 18.1875 L 9.3125 16.90625 L 8.6875 16.3125 L 5.6875 13.1875 C 5.5875 13.0875 5.59375 13.00625 5.59375 12.90625 C 5.59375 12.80625 5.5875 12.69375 5.6875 12.59375 L 7 11.40625 C 7.1 11.3063 7.2125 11.3125 7.3125 11.3125 C 7.4125 11.3125 7.49375 11.30625 7.59375 11.40625 L 10.5 14.40625 C 10.7 14.60625 10.99375 14.60625 11.09375 14.40625 L 17.8125 7.6875 C 17.9125 7.5875 18.0125 7.5625 18.125 7.5625 z "
   id="path3035"
   inkscape:export-xdpi="91.120003"
   inkscape:export-ydpi="91.120003" /><g
   id="g3002"
   style="fill:#ffffff">
	<g
   id="g3004"
   style="fill:#ffffff">
		
	</g>
</g>
</svg>