<?xml version="1.0" encoding="utf-8"?>
<!-- Generator: Adobe Illustrator 15.0.2, SVG Export Plug-In . SVG Version: 6.00 Build 0)  -->
<!DOCTYPE svg PUBLIC "-//W3C//DTD SVG 1.1//EN" "http://www.w3.org/Graphics/SVG/1.1/DTD/svg11.dtd">
<svg version="1.1" id="Layer_1" xmlns="http://www.w3.org/2000/svg" xmlns:xlink="http://www.w3.org/1999/xlink" x="0px" y="0px"
	 width="24px" height="24px" viewBox="0 0 24 24" enable-background="new 0 0 24 24" xml:space="preserve">
<g id="title-watch_1_">
	<path fill="#333333" d="M19,0H5C2.2,0,0,2.2,0,5v14c0,2.8,2.2,5,5,5h14c2.8,0,5-2.2,5-5V5C24,2.2,21.8,0,19,0z M5,21H2v-3h3V21z
		 M5,16H2v-3h3V16z M5,11H2V8h3V11z M5,6H2V3h3V6z M16,12.9L16,12.9l-6.3,3.9l-0.1,0.1C9.4,17,9.2,17,9.1,17C8.5,17,8,16.5,8,16V8.1
		C8,7.5,8.5,7,9.1,7c0.2,0,0.4,0.1,0.6,0.2l0,0l6.3,3.9l0.1,0c0.3,0.2,0.5,0.5,0.5,0.9S16.2,12.7,16,12.9z M22,21h-3v-3h3V21z
		 M22,16h-3v-3h3V16z M22,11h-3V8h3V11z M22,6h-3V3h3V6z"/>
</g>
</svg>
