<?xml version="1.0" encoding="utf-8"?>
<!-- Generator: Adobe Illustrator 15.0.2, SVG Export Plug-In . SVG Version: 6.00 Build 0)  -->
<!DOCTYPE svg PUBLIC "-//W3C//DTD SVG 1.1//EN" "http://www.w3.org/Graphics/SVG/1.1/DTD/svg11.dtd">
<svg version="1.1" id="Layer_1" xmlns="http://www.w3.org/2000/svg" xmlns:xlink="http://www.w3.org/1999/xlink" x="0px" y="0px"
	 width="24px" height="24px" viewBox="-595.5 420.5 24 24" enable-background="new -595.5 420.5 24 24" xml:space="preserve">
<path fill="#999999" d="M-580.5,420.5h-12c-1.257,0-2,1.028-2,2.286V442.5c0,1.258,0.696,2,1.953,2h17.047c1.257,0,2-0.742,2-2v-15
	L-580.5,420.5z M-576.5,427.5h-4v-4L-576.5,427.5z M-575.5,442.5h-17v-20h10v7h7V442.5z M-590.5,432.5h13v1h-13V432.5z
	 M-590.5,435.5h13v1h-13V435.5z M-590.5,438.5h13v1h-13V438.5z"/>
<path fill="#999999" d="M-574.5,425.5"/>
</svg>
