<?xml version="1.0" ?><!DOCTYPE svg  PUBLIC '-//W3C//DTD SVG 1.1//EN'  'http://www.w3.org/Graphics/SVG/1.1/DTD/svg11.dtd'><svg enable-background="new 0 0 87 56" height="56px" id="Layer_1" version="1.1" viewBox="0 0 87 56" width="87px" xml:space="preserve" xmlns="http://www.w3.org/2000/svg" xmlns:xlink="http://www.w3.org/1999/xlink"><g><path d="M6.024,26.301h2.053l0.85,2.265h7.997v-1.699l0.708,1.699h4.176l0.708-1.77v1.77h19.816v-3.681h0.355   c0.281,0,0.352,0.07,0.352,0.496v3.185h10.262v-0.85c0.85,0.425,2.126,0.85,3.821,0.85h4.319l0.92-2.265h2.052l0.92,2.265h8.281   v-2.124l1.273,2.124h6.651V14.692h-6.582v1.63l-0.989-1.63h-6.724v1.63l-0.85-1.63h-9.127c-1.559,0-2.901,0.214-3.967,0.78v-0.78   h-6.296v0.78c-0.709-0.566-1.629-0.78-2.691-0.78H21.312l-1.557,3.54l-1.628-3.54h-7.219v1.63l-0.85-1.63H3.901L1,21.277v7.288   h4.104L6.024,26.301z M53.799,17.808c0.708-0.779,1.98-1.132,3.609-1.132h2.263v2.123h-2.263c-0.85,0-1.347,0.141-1.84,0.564   c-0.428,0.426-0.639,1.205-0.639,2.266c0,1.064,0.211,1.841,0.639,2.336c0.352,0.354,0.99,0.495,1.629,0.495h1.061l3.395-7.784   h3.54l3.963,9.343v-9.343h3.681l4.178,6.864v-6.864h2.404v9.908h-3.395l-4.461-7.432v7.432h-4.812l-0.92-2.193h-4.957l-0.917,2.193   h-2.76c-1.136,0-2.62-0.283-3.47-1.133c-0.778-0.848-1.202-1.981-1.202-3.752C52.525,20.214,52.737,18.869,53.799,17.808z    M48.916,16.676h2.403v9.908h-2.403V16.676z M38.016,16.676h5.451c1.2,0,2.051,0,2.829,0.426c0.779,0.495,1.272,1.131,1.272,2.262   c0,1.559-1.062,2.336-1.699,2.621c0.498,0.211,0.92,0.565,1.136,0.85c0.353,0.494,0.422,0.92,0.422,1.77v1.98H45.02v-1.273   c0-0.566,0.074-1.416-0.353-1.911c-0.354-0.354-0.919-0.425-1.769-0.425H40.35v3.609h-2.334V16.676z M28.389,16.676h7.927v2.053   h-5.52v1.77h5.449v2.052h-5.449v1.981h5.52v2.053h-7.927V16.676z M3.618,26.584H1.07l4.246-9.908h3.539l4.034,9.343v-9.343h3.823   l3.113,6.724l2.901-6.724h3.893v9.908h-2.406v-7.785l-3.468,7.785h-2.053l-3.468-7.785v7.785h-4.813l-0.92-2.193H4.539   L3.618,26.584z" fill="#F1F2F2"/><polygon fill="#F1F2F2" points="22.304,35.783 22.304,37.624 27.541,37.624 27.541,39.605 22.304,39.605 22.304,41.587    28.178,41.587 30.867,38.686 28.249,35.783  "/><polygon fill="#F1F2F2" points="63.352,18.373 61.724,22.268 64.981,22.268  "/><polygon fill="#F1F2F2" points="5.388,22.268 8.643,22.268 7.016,18.373  "/><polygon fill="#F1F2F2" points="37.59,42.793 37.59,34.794 33.91,38.686  "/><path d="M44.457,20.709c0.28-0.141,0.421-0.495,0.421-0.92c0-0.426-0.141-0.707-0.421-0.92   c-0.284-0.141-0.779-0.141-1.205-0.141H40.35v2.193h2.902C43.748,20.922,44.103,20.922,44.457,20.709z" fill="#F1F2F2"/><path d="M54.577,35.995c-0.286-0.212-0.708-0.212-1.132-0.212H50.54v2.264l2.905-0.07c0.424,0,0.775,0,1.132-0.141   c0.281-0.212,0.493-0.563,0.493-0.991C55.07,36.423,54.858,36.137,54.577,35.995z" fill="#F1F2F2"/><path d="M43.039,35.783h-3.113v2.55h3.113c0.85,0,1.418-0.497,1.418-1.347S43.889,35.783,43.039,35.783z" fill="#F1F2F2"/><path d="M73.263,37.624h-1.276c-0.354,0-0.635-0.069-0.921-0.141c-0.282-0.141-0.492-0.356-0.492-0.709   c0-0.352,0.069-0.567,0.352-0.779c0.212-0.141,0.498-0.141,0.92-0.141h4.39v-2.122h-4.741c-2.55,0-3.399,1.559-3.399,2.972   c0,3.113,2.761,2.972,4.953,3.042c0.427,0,0.709,0.071,0.85,0.216c0.146,0.142,0.286,0.423,0.286,0.705s-0.141,0.497-0.286,0.638   c-0.211,0.141-0.492,0.212-0.92,0.212h-4.601v2.122h4.601c2.408,0,3.751-0.99,3.751-3.113c0-0.99-0.282-1.629-0.704-2.121   C75.455,37.906,74.605,37.624,73.263,37.624z" fill="#0078A9"/><path d="M40.35,22.975h2.549c0.85,0,1.415,0.07,1.769,0.425c0.427,0.495,0.353,1.345,0.353,1.911v1.273h2.407v-1.98   c0-0.85-0.069-1.275-0.422-1.77c-0.216-0.284-0.638-0.639-1.136-0.85c0.638-0.285,1.699-1.063,1.699-2.621   c0-1.131-0.493-1.767-1.272-2.262c-0.778-0.426-1.629-0.426-2.829-0.426h-5.451v9.908h2.334V22.975z M40.35,18.729h2.902   c0.426,0,0.921,0,1.205,0.141c0.28,0.213,0.421,0.494,0.421,0.92c0,0.425-0.141,0.779-0.421,0.92   c-0.354,0.213-0.709,0.213-1.205,0.213H40.35V18.729z" fill="#0078A9"/><rect fill="#0078A9" height="9.908" width="2.403" x="48.916" y="16.676"/><path d="M57.197,26.584h2.76l0.917-2.193h4.957l0.92,2.193h4.812v-7.432l4.461,7.432h3.395v-9.908h-2.404v6.864   l-4.178-6.864h-3.681v9.343l-3.963-9.343h-3.54l-3.395,7.784h-1.061c-0.639,0-1.277-0.141-1.629-0.495   c-0.428-0.495-0.639-1.271-0.639-2.336c0-1.061,0.211-1.84,0.639-2.266c0.493-0.424,0.99-0.564,1.84-0.564h2.263v-2.123h-2.263   c-1.629,0-2.901,0.353-3.609,1.132c-1.062,1.062-1.273,2.406-1.273,3.892c0,1.771,0.424,2.904,1.202,3.752   C54.577,26.301,56.062,26.584,57.197,26.584z M63.352,18.373l1.63,3.895h-3.258L63.352,18.373z" fill="#0078A9"/><path d="M43.039,33.732h-7.572l-3.043,3.254l-2.902-3.254h-9.554v9.906h9.413l3.043-3.254l2.901,3.254h4.601v-3.324   h2.973c2.051,0,4.106-0.568,4.106-3.328C47.005,34.296,44.878,33.732,43.039,33.732z M28.178,41.587h-5.874v-1.981h5.237v-1.981   h-5.237v-1.841h5.945l2.619,2.902L28.178,41.587z M37.59,42.793l-3.68-4.107l3.68-3.892V42.793z M43.039,38.333h-3.113v-2.55h3.113   c0.85,0,1.418,0.354,1.418,1.203S43.889,38.333,43.039,38.333z" fill="#0078A9"/><polygon fill="#0078A9" points="36.316,24.531 30.797,24.531 30.797,22.55 36.246,22.55 36.246,20.498 30.797,20.498    30.797,18.729 36.316,18.729 36.316,16.676 28.389,16.676 28.389,26.584 36.316,26.584  "/><path d="M57.689,36.423c0-1.132-0.422-1.771-1.201-2.197c-0.779-0.423-1.699-0.493-2.901-0.493h-5.45v9.906h2.403   v-3.606h2.549c0.85,0,1.348,0.071,1.7,0.423c0.427,0.494,0.427,1.344,0.427,1.981v1.202h2.334v-1.911c0-0.92-0.07-1.343-0.353-1.84   c-0.216-0.282-0.639-0.634-1.207-0.85C56.63,38.826,57.689,37.977,57.689,36.423z M54.577,37.836   c-0.356,0.141-0.708,0.141-1.132,0.141l-2.905,0.07v-2.264h2.905c0.424,0,0.846,0,1.132,0.212c0.281,0.142,0.493,0.428,0.493,0.85   C55.07,37.272,54.858,37.624,54.577,37.836z" fill="#0078A9"/><polygon fill="#0078A9" points="59.033,43.639 66.962,43.639 66.962,41.587 61.37,41.587 61.37,39.605 66.822,39.605    66.822,37.624 61.37,37.624 61.37,35.783 66.962,35.783 66.962,33.732 59.033,33.732  "/><path d="M10.413,26.584h4.813v-7.785l3.468,7.785h2.053l3.468-7.785v7.785h2.406v-9.908h-3.893l-2.901,6.724   l-3.113-6.724H12.89v9.343l-4.034-9.343H5.316L1.07,26.584h2.548l0.92-2.193h4.954L10.413,26.584z M5.388,22.268l1.628-3.895   l1.627,3.895H5.388z" fill="#0078A9"/><path d="M57.689,36.423c0-1.132-0.422-1.771-1.201-2.197c-0.779-0.423-1.699-0.493-2.901-0.493h-5.45v9.906h2.403   v-3.606h2.549c0.85,0,1.348,0.071,1.7,0.423c0.427,0.494,0.427,1.344,0.427,1.981v1.202h2.334v-1.911c0-0.92-0.07-1.343-0.353-1.84   c-0.216-0.282-0.639-0.634-1.207-0.85C56.63,38.826,57.689,37.977,57.689,36.423z" fill="none"/><polygon fill="none" points="59.033,43.639 66.962,43.639 66.962,41.587 61.37,41.587 61.37,39.605 66.822,39.605 66.822,37.624    61.37,37.624 61.37,35.783 66.962,35.783 66.962,33.732 59.033,33.732  "/><path d="M43.039,33.732h-7.572l-3.043,3.254l-2.902-3.254h-9.554v9.906h9.413l3.043-3.254l2.901,3.254h4.601v-3.324   h2.973c2.051,0,4.106-0.568,4.106-3.328C47.005,34.296,44.878,33.732,43.039,33.732z" fill="none"/><path d="M77.366,36.704c0,3.113,2.76,2.972,4.953,3.042c0.427,0,0.709,0.071,0.85,0.216   c0.141,0.142,0.281,0.423,0.281,0.705s-0.141,0.497-0.281,0.638s-0.493,0.212-0.92,0.212h-4.601v2.122h4.601   c1.496,0,2.58-0.384,3.188-1.184v-3.851c-0.049-0.066-0.092-0.139-0.146-0.2c-0.563-0.498-1.413-0.78-2.756-0.78h-1.277   c-0.353,0-0.634-0.069-0.92-0.141c-0.282-0.141-0.493-0.356-0.493-0.709c0-0.352,0.141-0.567,0.353-0.779   c0.211-0.141,0.497-0.141,0.92-0.141h4.319v-2.122h-4.671C78.286,33.732,77.366,35.291,77.366,36.704z" fill="none"/><rect fill="none" height="2.122" width="0.069" x="85.437" y="33.732"/><path d="M85.714,41.976c0.027-0.061,0.05-0.125,0.073-0.188c0.047-0.127,0.085-0.26,0.116-0.399   c0.014-0.064,0.03-0.128,0.041-0.195C85.978,40.983,86,40.764,86,40.525c0-0.229-0.018-0.438-0.047-0.631   c-0.016-0.105-0.043-0.197-0.066-0.294c-0.018-0.074-0.033-0.152-0.056-0.222c-0.04-0.124-0.089-0.236-0.142-0.346   c-0.012-0.025-0.023-0.053-0.036-0.077c-0.104-0.202-0.222-0.39-0.362-0.552c-0.563-0.498-1.413-0.78-2.756-0.78h-1.277   c-0.353,0-0.634-0.069-0.92-0.141c-0.282-0.141-0.493-0.356-0.493-0.709c0-0.352,0.141-0.567,0.353-0.779   c0.211-0.141,0.497-0.141,0.92-0.141h4.389v-2.122h-4.74c-2.479,0-3.399,1.559-3.399,2.972c0,3.113,2.76,2.972,4.953,3.042   c0.427,0,0.709,0.071,0.85,0.216c0.141,0.142,0.281,0.423,0.281,0.705s-0.141,0.497-0.281,0.638s-0.493,0.212-0.92,0.212h-4.601   v2.122h4.601c1.55,0,2.651-0.417,3.245-1.276C85.577,42.242,85.651,42.113,85.714,41.976z" fill="#0078A9"/><path d="M73.263,37.624h-1.276c-0.354,0-0.635-0.069-0.921-0.141c-0.282-0.141-0.492-0.356-0.492-0.709   c0-0.352,0.069-0.567,0.352-0.779c0.212-0.141,0.498-0.141,0.92-0.141h4.39v-2.122h-4.741c-2.55,0-3.399,1.559-3.399,2.972   c0,3.113,2.761,2.972,4.953,3.042c0.427,0,0.709,0.071,0.85,0.216c0.146,0.142,0.286,0.423,0.286,0.705s-0.141,0.497-0.286,0.638   c-0.211,0.141-0.492,0.212-0.92,0.212h-4.601v2.122h4.601c2.408,0,3.751-0.99,3.751-3.113c0-0.99-0.282-1.629-0.704-2.121   C75.455,37.906,74.605,37.624,73.263,37.624z" fill="none"/><path d="M81.047,31.751h4.39H86V3.365c0-0.552-0.216-1.054-0.563-1.456C84.962,1.359,84.234,1,83.407,1H3.593   C2.161,1,1,2.059,1,3.365v17.912l2.901-6.585h6.158l0.85,1.63v-1.63h7.219l1.628,3.54l1.557-3.54h23.001   c1.063,0,1.982,0.214,2.691,0.78v-0.78h6.296v0.78c1.065-0.566,2.408-0.78,3.967-0.78h9.127l0.85,1.63v-1.63h6.724l0.989,1.63   v-1.63h6.582v13.873h-6.651l-1.273-2.124v2.124h-8.281l-0.92-2.265h-2.052l-0.92,2.265h-4.319c-1.695,0-2.972-0.425-3.821-0.85   v0.85H43.039v-3.185c0-0.426-0.07-0.496-0.352-0.496h-0.355v3.681H22.516v-1.77l-0.708,1.77h-4.176l-0.708-1.699v1.699H8.927   l-0.85-2.265H6.024l-0.92,2.265H1v24.07C1,53.941,2.161,55,3.593,55h79.814c0.827,0,1.555-0.359,2.029-0.909   C85.784,53.688,86,53.188,86,52.636v-8.178c-0.084,0.354-0.563,0.528-0.563,0.528c-0.92,0.422-2.197,0.638-3.47,0.638h-6.159v-0.85   c-0.704,0.563-1.981,0.85-3.184,0.85H53.23v-3.188c0-0.423-0.071-0.423-0.423-0.423h-0.356v3.61h-6.366v-3.755   c-1.065,0.497-2.267,0.497-3.327,0.497h-0.709v3.258h-7.785l-1.84-2.126l-2.053,2.126H17.845V31.751h12.739l1.84,2.122l1.981-2.122   h8.563c0.99,0,2.618,0.142,3.327,0.85v-0.85h7.643c0.78,0,2.264,0.142,3.259,0.85v-0.85h11.535v0.85   c0.638-0.568,1.841-0.85,2.9-0.85h6.441v0.85C78.784,32.103,79.774,31.751,81.047,31.751z" fill="#0078A9"/><path d="M85.437,31.751h-4.39c-1.272,0-2.263,0.352-2.973,0.85v-0.85h-6.441c-1.06,0-2.263,0.281-2.9,0.85v-0.85   H57.197v0.85c-0.995-0.708-2.479-0.85-3.259-0.85h-7.643v0.85c-0.709-0.708-2.337-0.85-3.327-0.85h-8.563l-1.981,2.122l-1.84-2.122   H17.845v13.873h12.526l2.053-2.126l1.84,2.126h7.785v-3.258h0.709c1.061,0,2.262,0,3.327-0.497v3.755h6.366v-3.61h0.356   c0.352,0,0.423,0,0.423,0.423v3.188h19.394c1.202,0,2.479-0.286,3.184-0.85v0.85h6.159c1.272,0,2.55-0.216,3.47-0.638   c0,0,0.479-0.175,0.563-0.528v-3.933c0,0.804-0.194,1.443-0.563,1.93c-0.607,0.8-1.691,1.184-3.188,1.184h-4.601v-2.122h4.601   c0.427,0,0.779-0.071,0.92-0.212s0.281-0.355,0.281-0.638s-0.141-0.563-0.281-0.705c-0.141-0.145-0.423-0.216-0.85-0.216   c-2.193-0.07-4.953,0.071-4.953-3.042c0-1.413,0.92-2.972,3.399-2.972h4.671h0.069v2.122h-0.069h-4.319   c-0.423,0-0.709,0-0.92,0.141c-0.212,0.212-0.353,0.428-0.353,0.779c0,0.353,0.211,0.568,0.493,0.709   c0.286,0.071,0.567,0.141,0.92,0.141h1.277c1.343,0,2.192,0.282,2.756,0.78c0.054,0.062,0.097,0.134,0.146,0.2   C85.776,39.07,86,39.659,86,40.525v-8.774H85.437z M42.898,40.314h-2.973v3.324h-4.601l-2.901-3.254l-3.043,3.254h-9.413v-9.906   h9.554l2.902,3.254l3.043-3.254h7.572c1.839,0,3.966,0.563,3.966,3.254C47.005,39.746,44.949,40.314,42.898,40.314z M57.197,39.888   c0.282,0.497,0.353,0.92,0.353,1.84v1.911h-2.334v-1.202c0-0.638,0-1.487-0.427-1.981c-0.353-0.352-0.851-0.423-1.7-0.423H50.54   v3.606h-2.403v-9.906h5.45c1.202,0,2.122,0.07,2.901,0.493c0.779,0.427,1.201,1.065,1.201,2.197c0,1.554-1.06,2.403-1.699,2.615   C56.559,39.254,56.981,39.605,57.197,39.888z M66.962,35.783H61.37v1.841h5.452v1.981H61.37v1.981h5.592v2.052h-7.929v-9.906h7.929   V35.783z M72.977,43.639h-4.601v-2.122h4.601c0.428,0,0.709-0.071,0.92-0.212c0.146-0.141,0.286-0.355,0.286-0.638   s-0.141-0.563-0.286-0.705c-0.141-0.145-0.423-0.216-0.85-0.216c-2.192-0.07-4.953,0.071-4.953-3.042   c0-1.413,0.85-2.972,3.399-2.972h4.741v2.122h-4.39c-0.422,0-0.708,0-0.92,0.141c-0.282,0.212-0.352,0.428-0.352,0.779   c0,0.353,0.21,0.568,0.492,0.709c0.286,0.071,0.567,0.141,0.921,0.141h1.276c1.343,0,2.192,0.282,2.761,0.78   c0.422,0.492,0.704,1.131,0.704,2.121C76.728,42.648,75.385,43.639,72.977,43.639z" fill="#F1F2F2"/></g></svg>