<?xml version="1.0" encoding="utf-8"?>
<!-- Generator: Adobe Illustrator 19.1.0, SVG Export Plug-In . SVG Version: 6.00 Build 0)  -->
<svg version="1.1" id="Layer_1" xmlns="http://www.w3.org/2000/svg" xmlns:xlink="http://www.w3.org/1999/xlink" x="0px" y="0px"
	 viewBox="-298 -57 256 256" style="enable-background:new -298 -57 256 256;" xml:space="preserve">
<style type="text/css">
	.st0{fill:#FFFFFF;}
</style>
<g>
	<ellipse class="st0" cx="-176.8" cy="158.7" rx="22" ry="21.5"/>
	<ellipse class="st0" cx="-108.7" cy="158.7" rx="22" ry="21.5"/>
	<path class="st0" d="M-65.6,10.1h-152.1c-0.4,0-0.7,0.1-1.1,0.1l-3.9-19.3c-0.7-5.2-4.3-8.2-10.8-9.1H-289
		C-301.5-18.1-301.9,13-272.9,9l28-0.3l5,23.3v0.1l15.1,74.5c0,12.1,10.1,21.9,22.4,21.9h122c12.3,0,22.4-9.9,22.4-21.9l15-74.5
		C-43.1,20-53.3,10.1-65.6,10.1z M-196.3,106.5l-0.5,0.1c-4.2,0.5-8-2.4-8.5-6.2l-8.6-58.7c-0.6-4.1,2.5-7.7,6.7-8.2l0.5-0.1
		c4.2-0.5,8,2.4,8.5,6.2l8.6,58.7C-188.9,102.4-192,106-196.3,106.5z M-157.3,106.7l-0.5,0.1c-4.2,0.3-7.9-2.8-8.2-6.7l-5-59
		c-0.4-4.1,2.9-7.6,7.1-7.8l0.6-0.1c4.2-0.3,7.9,2.8,8.2,6.7l5,59C-149.7,103-153,106.5-157.3,106.7z M-112.1,99.7
		c-0.1,4.1-3.6,7.2-7.8,7.2h-0.6c-4.3-0.1-7.6-3.4-7.6-7.4l1-59.1c0.1-4.1,3.6-7.2,7.8-7.2h0.6c4.3,0.1,7.6,3.4,7.6,7.4L-112.1,99.7
		z M-67.1,42l-10.1,58.5c-0.6,3.9-4.6,6.6-8.7,6l-0.5-0.1c-4.3-0.6-7.2-4.4-6.5-8.4l10-58.5c0.6-3.9,4.6-6.6,8.7-6l0.5,0.1
		C-69.3,34.2-66.4,38-67.1,42z"/>
</g>
</svg>
