<?xml version="1.0" encoding="utf-8"?>
<!-- Generator: Adobe Illustrator 19.1.0, SVG Export Plug-In . SVG Version: 6.00 Build 0)  -->
<svg version="1.1" id="Layer_1" xmlns="http://www.w3.org/2000/svg" xmlns:xlink="http://www.w3.org/1999/xlink" x="0px" y="0px"
	 viewBox="-42 -57 256 256" width="256" height="256" style="enable-background:new -42 -57 256 256;" xml:space="preserve">
<style type="text/css">
	.st0{fill:#002B49;}
</style>
<g>
	<ellipse class="st0" cx="79.2" cy="149.3" rx="22.2" ry="21.7"/>
	<ellipse class="st0" cx="147.9" cy="149.3" rx="22.2" ry="21.7"/>
	<path class="st0" d="M191.4-0.5H38c-0.4,0-0.7,0.1-1.1,0.1l-3.9-19.5c-0.7-5.2-4.3-8.3-10.9-9.2h-56C-46.5-29-46.9,2.4-17.7-1.7
		l28.2-0.3l5,23.5v0.1l15.2,75.1c0,12.2,10.2,22.1,22.6,22.1h123c12.4,0,22.6-10,22.6-22.1L214,21.6C214,9.4,203.8-0.5,191.4-0.5z
		 M59.6,96.7l-0.5,0.1c-4.2,0.5-8.1-2.4-8.6-6.3l-8.7-59.2c-0.6-4.1,2.5-7.8,6.8-8.3l0.5-0.1c4.2-0.5,8.1,2.4,8.6,6.3l8.7,59.2
		C67,92.5,63.9,96.2,59.6,96.7z M98.9,96.9L98.4,97c-4.2,0.3-8-2.8-8.3-6.8l-5-59.5c-0.4-4.1,2.9-7.7,7.2-7.9l0.6-0.1
		c4.2-0.3,8,2.8,8.3,6.8l5,59.5C106.5,93.1,103.2,96.7,98.9,96.9z M144.5,89.8c-0.1,4.1-3.6,7.3-7.9,7.3h-0.6
		c-4.3-0.1-7.7-3.4-7.7-7.5l1-59.6c0.1-4.1,3.6-7.3,7.9-7.3h0.6c4.3,0.1,7.7,3.4,7.7,7.5L144.5,89.8z M189.8,31.6l-10.2,59
		c-0.6,3.9-4.6,6.7-8.8,6.1l-0.5-0.1c-4.3-0.6-7.3-4.4-6.6-8.5l10.1-59c0.6-3.9,4.6-6.7,8.8-6.1l0.5,0.1
		C187.6,23.8,190.5,27.6,189.8,31.6z"/>
</g>
</svg>
