<?xml version="1.0" encoding="utf-8"?>
<!-- Generator: Adobe Illustrator 19.1.0, SVG Export Plug-In . SVG Version: 6.00 Build 0)  -->
<svg version="1.1" id="Capa_1" xmlns="http://www.w3.org/2000/svg" xmlns:xlink="http://www.w3.org/1999/xlink" x="0px" y="0px"
	 viewBox="-318 -2 216 146" width="216" height="146" style="enable-background:new -318 -2 216 146;" xml:space="preserve">
<style type="text/css">
	.st0{fill:#AAAAAA;}
</style>
<path class="st0" d="M-165.4,68.1c-1.5-1.5-3.4-2.3-5.5-2.3h-2.6V50.1c0-10-3.6-18.6-10.8-25.7c-7.2-7.2-15.8-10.8-25.7-10.8
	s-18.6,3.6-25.7,10.8c-7.2,7.2-10.8,15.8-10.8,25.7v15.6h-2.6c-2.2,0-4,0.8-5.5,2.3c-1.5,1.5-2.3,3.4-2.3,5.5v46.9
	c0,2.2,0.8,4,2.3,5.5c1.5,1.5,3.4,2.3,5.5,2.3h78.2c2.2,0,4-0.8,5.5-2.3c1.5-1.5,2.3-3.4,2.3-5.5V73.6
	C-163.1,71.4-163.8,69.6-165.4,68.1z M-189.1,65.8h-41.7V50.1c0-5.8,2-10.7,6.1-14.7c4.1-4.1,9-6.1,14.7-6.1c5.8,0,10.7,2,14.7,6.1
	c4.1,4.1,6.1,9,6.1,14.7V65.8z"/>
</svg>
