<?xml version="1.0" encoding="utf-8"?>
<!-- Generator: Adobe Illustrator 19.1.0, SVG Export Plug-In . SVG Version: 6.00 Build 0)  -->
<svg version="1.1" id="Capa_1" xmlns="http://www.w3.org/2000/svg" xmlns:xlink="http://www.w3.org/1999/xlink" x="0px" y="0px"
	 viewBox="-318 -2 216 146" width="216" height="146" style="enable-background:new -318 -2 216 146;" xml:space="preserve">
<style type="text/css">
	.st0{fill:#AAAAAA;}
</style>
<g>
	<path class="st0" d="M-210,71c8.6,0,16-3.1,22.1-9.2c6.1-6.1,9.2-13.5,9.2-22.1c0-8.6-3.1-16-9.2-22.1c-6.1-6.1-13.5-9.2-22.1-9.2
		c-8.6,0-16,3.1-22.1,9.2c-6.1,6.1-9.2,13.5-9.2,22.1c0,8.6,3.1,16,9.2,22.1S-218.6,71-210,71z"/>
	<path class="st0" d="M-152.9,104c-0.2-2.7-0.6-5.7-1.1-8.9c-0.6-3.2-1.3-6.1-2.2-8.8c-0.9-2.7-2-5.4-3.5-7.9
		c-1.5-2.6-3.1-4.8-5.1-6.6s-4.2-3.3-7-4.4c-2.7-1.1-5.8-1.6-9.1-1.6c-0.5,0-1.6,0.6-3.4,1.8s-3.8,2.5-6.1,3.9
		c-2.3,1.4-5.2,2.7-8.8,3.9c-3.6,1.2-7.2,1.8-10.9,1.8c-3.6,0-7.3-0.6-10.9-1.8c-3.6-1.2-6.5-2.5-8.8-3.9c-2.3-1.4-4.3-2.7-6.1-3.9
		c-1.8-1.2-2.9-1.8-3.4-1.8c-3.3,0-6.3,0.5-9.1,1.6s-5.1,2.5-7,4.4c-1.9,1.8-3.6,4-5.1,6.6s-2.6,5.2-3.5,7.9
		c-0.9,2.7-1.6,5.7-2.2,8.8c-0.6,3.2-1,6.1-1.1,8.9c-0.2,2.7-0.3,5.6-0.3,8.4c0,6.5,2,11.7,5.9,15.4c4,3.8,9.2,5.7,15.8,5.7h71.2
		c6.6,0,11.8-1.9,15.8-5.7c4-3.8,5.9-8.9,5.9-15.4C-152.6,109.6-152.7,106.8-152.9,104z"/>
</g>
</svg>
